# xmcd
#
# Track frame offsets:
#	150
#	12963
#	23630
#	36566
#	51761
#	63256
#	64994
#	79167
#	94172
#	98729
#	107856
#	120749
#	124747
#	137491
#	144039
#	160079
#	178326
#	186807
#	193346
#	202884
#	211176
#	227696
#	232937
#	236722
#	241086
#	249833
#	260758
#	278038
#	293347
#
# Disc length: 4485 seconds
#
# Revision: 0
# Processed by: cddbd v1.5.1PL2 Copyright (c) Steve Scherf et al.
# Submitted via: dBpowerAMP V4.0
#
DISCID=9211831d
DTITLE=Redmon - Live at Redmon's
DYEAR=1900
DGENRE=
TTITLE0=It Must Be Love
TTITLE1=Another Bluegrass Morning
TTITLE2=Garth Brooks Ain't Playin Here Tonight
TTITLE3=Dusty
TTITLE4=The Garden Song
TTITLE5=Toast
TTITLE6=Last Kiss
TTITLE7=Paradise
TTITLE8=My old Kentucky Home
TTITLE9=My old Kentucky Home (Extra Verse)
TTITLE10=Uncle Penn
TTITLE11=Thank God I'm a Country Boy
TTITLE12=Contry Roads
TTITLE13=Song of the South
TTITLE14=Dixieland Delight
TTITLE15=Tulsa Turnaround
TTITLE16=Suspicious Minds
TTITLE17=Heartbreak Hotel
TTITLE18=I Hear You Knocking
TTITLE19=Susie Q
TTITLE20=Dock of the Bay
TTITLE21=Promised Land
TTITLE22=Johnny B. Goode
TTITLE23=Katmandu
TTITLE24=Fire Down Below
TTITLE25=Have You Ever Seen the Rain
TTITLE26=Copperhead Road
TTITLE27=Sweet Home Alabama (Intro)
TTITLE28=Sweet Home Alabama
EXTD=There is a little bar in Lexington, KY and this is the man that owns it.  Go to www.larryredmon.com to find out more.
EXTT0=
EXTT1=
EXTT2=
EXTT3=
EXTT4=
EXTT5=
EXTT6=
EXTT7=
EXTT8=
EXTT9=
EXTT10=
EXTT11=
EXTT12=
EXTT13=
EXTT14=
EXTT15=
EXTT16=
EXTT17=
EXTT18=
EXTT19=
EXTT20=
EXTT21=
EXTT22=
EXTT23=
EXTT24=
EXTT25=
EXTT26=
EXTT27=
EXTT28=
PLAYORDER=
